<?xml version="1.0" standalone="no"?><!DOCTYPE svg PUBLIC "-//W3C//DTD SVG 1.1//EN" "http://www.w3.org/Graphics/SVG/1.1/DTD/svg11.dtd"><svg t="1698240825047" class="icon" viewBox="0 0 1024 1024" version="1.1" xmlns="http://www.w3.org/2000/svg" p-id="21413" xmlns:xlink="http://www.w3.org/1999/xlink" width="200" height="200"><path d="M842.8544 710.656v24.576c0 35.1232-28.4672 63.6928-63.6928 63.6928H96.5632c8.9088 24.4736 32.3584 41.984 59.904 41.984h711.168c35.1232 0 63.6928-28.4672 63.6928-63.6928v-66.56h-88.4736z" fill="#262626" p-id="21414"></path><path d="M842.8544 735.3344v-24.576H92.7744v66.6624c0 7.5776 1.3312 14.848 3.7888 21.6064h682.5984c35.2256-0.1024 63.6928-28.5696 63.6928-63.6928zM892.3136 256.6144c-9.9328 0-17.92 7.9872-17.92 17.92v436.224h35.84v-436.224c0-9.9328-7.9872-17.92-17.92-17.92zM113.7664 710.656V274.432c0-9.9328 7.9872-17.92 17.92-17.92s17.92 7.9872 17.92 17.92v436.224" fill="#444444" p-id="21415"></path><path d="M809.6768 448.7168l-67.584-39.2192c-20.2752-11.776-46.8992-9.5232-63.3856 5.4272l-104.8576 94.6176c-44.4416 40.1408-110.592 55.808-173.4656 41.0624l-118.0672-27.648c-39.936-9.3184-73.5232-29.5936-97.4848-55.9104 12.8 67.4816 66.3552 122.88 138.1376 134.4512L434.4832 619.52c59.392 9.5232 119.296-13.312 157.0816-60.1088l89.1904-110.1824c14.0288-17.408 38.5024-22.3232 58.1632-11.776l65.7408 35.1232c8.6016 4.608 19.2512 1.4336 23.8592-7.168l13.2096-24.3712c1.2288-2.2528 1.9456-4.7104 2.048-7.168l-7.8848 10.5472c-5.632 7.4752-17.408 9.5232-26.2144 4.3008z" fill="#E85F00" p-id="21416"></path><path d="M835.8912 417.792l-44.6464-29.2864c-94.1056-61.7472-201.4208-100.5568-313.344-113.2544l-164.1472-18.7392c-56.9344-6.4512-108.9536 32.5632-118.6816 88.9856l-10.6496 61.952c-3.4816 20.3776-3.1744 40.448 0.4096 59.6992 23.9616 26.4192 57.5488 46.592 97.4848 55.9104l118.0672 27.648c62.8736 14.6432 129.024-1.024 173.4656-41.0624l104.8576-94.6176c16.5888-14.9504 43.1104-17.2032 63.3856-5.4272l67.584 39.2192c8.8064 5.12 20.5824 3.1744 26.2144-4.4032l7.8848-10.5472c0.512-6.2464-2.3552-12.3904-7.8848-16.0768z" fill="#FF9640" p-id="21417"></path><path d="M943.7184 475.7504c-7.68-4.4032-17.1008-2.2528-22.3232 4.4032l-74.24-41.3696-19.7632 28.672 77.312 47.0016c-2.1504 8.4992 2.3552 17.6128 11.1616 20.7872 7.8848 2.7648 16.7936-0.512 20.992-7.68 3.584-6.2464 2.9696-13.6192-0.8192-18.944 6.656-0.3072 12.9024-4.5056 15.5648-11.264 2.8672-8.192-0.4096-17.408-7.8848-21.6064z" fill="#FFFFFF" p-id="21418"></path><path d="M582.0416 355.7376s-13.824 4.5056-17.408 10.4448c-3.584 5.9392-2.8672 13.0048 1.536 15.872s10.8544 0.4096 14.336-5.5296 1.536-20.7872 1.536-20.7872zM517.5296 400.1792s-7.0656-13.2096-13.312-15.6672-12.8-0.3072-14.6432 4.7104c-1.8432 5.12 1.7408 11.1616 7.9872 13.6192s19.968-2.6624 19.968-2.6624zM411.5456 314.4704s-7.0656-13.2096-13.312-15.6672-12.8-0.3072-14.6432 4.7104 1.7408 11.1616 7.9872 13.6192 19.968-2.6624 19.968-2.6624zM527.5648 562.9952s-7.0656-13.2096-13.312-15.6672-12.8-0.3072-14.6432 4.7104 1.7408 11.1616 7.9872 13.6192c6.3488 2.4576 19.968-2.6624 19.968-2.6624zM387.9936 464.4864s12.5952-7.5776 14.848-14.1312c2.2528-6.5536 0.1024-13.312-4.7104-15.2576-4.9152-1.8432-10.6496 2.048-12.9024 8.6016-2.2528 6.656 2.7648 20.7872 2.7648 20.7872zM223.6416 476.9792s9.4208-11.5712 9.4208-18.5344-4.1984-12.5952-9.4208-12.5952-9.4208 5.632-9.4208 12.5952 9.4208 18.5344 9.4208 18.5344zM321.536 352.768s0.6144 15.1552 5.2224 20.1728c4.5056 5.12 11.264 6.2464 15.0528 2.56 3.7888-3.6864 3.1744-10.8544-1.4336-15.872-4.5056-5.12-18.8416-6.9632-18.8416-6.8608z" fill="#FFEEC7" p-id="21419"></path><path d="M948.736 466.8416c-9.1136-5.12-19.8656-4.7104-28.2624 0.512v-5.4272h10.752c5.632 0 10.24-4.608 10.24-10.24s-4.608-10.24-10.24-10.24h-10.752v-166.912c0-15.5648-12.5952-28.16-28.16-28.16s-28.16 12.5952-28.16 28.16v161.9968l-10.1376-5.632c-0.6144-8.4992-5.0176-16.6912-12.4928-21.6064l-44.6464-29.2864c-95.0272-62.2592-204.9024-101.9904-317.7472-114.8928l-164.1472-18.7392c-62.2592-7.0656-119.296 35.7376-129.9456 97.3824l-10.6496 61.952c-2.048 11.9808-2.8672 23.9616-2.56 35.84h-11.9808V274.5344c0-15.5648-12.5952-28.16-28.16-28.16s-28.16 12.5952-28.16 28.16v167.0144H92.7744c-5.632 0-10.24 4.608-10.24 10.24s4.608 10.24 10.24 10.24h10.752V700.416H92.7744c-5.632 0-10.24 4.608-10.24 10.24v66.6624c0 40.7552 33.1776 73.9328 73.9328 73.9328h711.0656c40.7552 0 73.9328-33.1776 73.9328-73.9328V710.656c0-5.632-4.608-10.24-10.24-10.24h-10.752V546.304h1.2288c9.6256 0 18.944-5.12 23.9616-13.824 3.1744-5.4272 4.3008-11.6736 3.4816-17.6128 5.3248-3.1744 9.6256-8.0896 11.8784-14.1312 4.8128-12.5952-0.512-27.2384-12.288-33.8944z m-64.1024-192.3072c0-4.1984 3.4816-7.68 7.68-7.68s7.68 3.4816 7.68 7.68v181.9648l-15.36-8.6016V274.5344z m-54.3744 151.8592c3.1744 2.1504 4.3008 6.3488 2.4576 9.728l-13.2096 24.3712c-1.9456 3.584-6.4512 4.9152-10.0352 3.072l-65.7408-35.1232c-24.064-12.8-53.8624-6.7584-70.9632 14.336l-50.0736 61.952-13.824-18.3296 29.2864-13.6192c2.048-0.9216 2.9696-3.3792 1.9456-5.4272s-3.3792-2.9696-5.4272-1.9456l-30.8224 14.336-40.5504-53.8624 70.5536-32.8704c2.048-0.9216 2.9696-3.3792 1.9456-5.4272s-3.3792-2.9696-5.4272-1.9456l-72.192 33.5872-40.7552-54.1696 50.0736-23.3472c2.048-0.9216 2.9696-3.3792 1.9456-5.4272s-3.3792-2.9696-5.4272-1.9456L512.3072 358.4l-40.1408-53.3504 33.28-15.4624c99.5328 15.5648 195.7888 52.5312 280.064 107.8272l44.7488 28.9792zM366.592 273.6128c-0.1024-0.3072-0.3072-0.6144-0.512-0.8192l78.6432 9.0112 14.9504 19.8656-74.1376 34.5088L348.16 286.72l16.4864-7.68c2.048-0.9216 2.8672-3.3792 1.9456-5.4272z m-27.648 98.9184c-0.7168 0.7168-1.7408 1.024-2.8672 1.024-2.1504-0.1024-4.5056-1.3312-6.2464-3.3792-1.8432-2.048-3.072-7.4752-3.6864-12.4928 4.608 1.024 9.5232 2.6624 11.264 4.608 3.2768 3.6864 3.4816 8.3968 1.536 10.24z m-15.2576 3.1744c3.2768 3.6864 7.68 5.9392 12.0832 6.0416h0.512c3.2768 0 6.2464-1.2288 8.3968-3.2768 3.8912-3.7888 4.7104-9.8304 2.56-15.4624l35.7376-16.6912 40.3456 53.3504-75.6736 35.2256-40.3456-53.3504 15.36-7.168c0.4096 0.512 0.7168 0.9216 1.024 1.3312z m16.4864 62.7712L269.312 471.4496l-40.3456-53.3504 70.8608-32.9728 40.3456 53.3504z m5.0176 6.656l40.96 54.0672-70.8608 32.9728-40.96-54.0672 70.8608-32.9728z m7.5776-3.584l75.6736-35.2256 40.96 54.0672-75.6736 35.2256-40.96-54.0672z m121.7536 25.6l40.7552 53.76-75.6736 35.2256-40.7552-53.76 75.6736-35.2256z m7.5776-3.584l73.6256-34.304 40.5504 53.8624-73.4208 34.2016-40.7552-53.76z m-5.0176-6.656l-40.96-54.0672 73.8304-34.4064 40.7552 54.1696-73.6256 34.304z m-46.08-60.8256l-40.3456-53.3504 74.0352-34.5088 40.1408 53.3504-73.8304 34.5088z m-53.0432-56.4224l-35.2256 16.384c-5.7344-5.3248-18.2272-7.0656-20.6848-7.4752-1.2288-0.2048-2.3552 0.2048-3.2768 1.024s-1.3312 1.9456-1.3312 3.1744c0.1024 1.7408 0.4096 8.0896 2.048 14.0288l-17.2032 7.9872-37.4784-49.4592 75.6736-35.2256 37.4784 49.5616z m-83.2512 38.8096l-70.8608 32.9728-21.2992-28.16c-0.8192-1.024-2.048-1.6384-3.2768-1.6384l4.8128-27.8528 53.1456-24.7808 37.4784 49.4592z m-100.1472 30.72l3.1744-18.6368 18.5344 24.4736-23.7568 11.0592c0.4096-5.632 1.024-11.264 2.048-16.896z m27.136 52.8384c2.7648 0 5.3248-1.1264 7.168-2.9696-0.3072 2.7648-2.6624 7.168-5.2224 10.9568-1.7408-2.6624-3.4816-5.5296-4.4032-7.9872h2.4576z m-10.9568 0c1.8432 7.3728 8.2944 15.7696 9.8304 17.5104 0.8192 0.9216 1.9456 1.536 3.1744 1.536 1.2288 0 2.3552-0.6144 3.1744-1.536 1.7408-2.1504 10.24-13.1072 10.24-21.0944 0-9.4208-5.9392-16.6912-13.5168-16.6912-0.6144-0.1024-1.3312-0.2048-1.9456-0.2048h-29.3888c-0.1024-2.048-0.1024-4.1984-0.1024-6.2464l29.184-13.6192 40.3456 53.3504-38.2976 17.8176c-2.048 0.9216-2.9696 3.3792-1.9456 5.4272 0.7168 1.536 2.1504 2.3552 3.6864 2.3552 0.6144 0 1.1264-0.1024 1.7408-0.4096l39.936-18.6368 40.96 54.0672-29.696 13.824c-2.048 0.9216-2.9696 3.3792-1.9456 5.4272 0.7168 1.536 2.1504 2.3552 3.6864 2.3552 0.6144 0 1.1264-0.1024 1.7408-0.4096l31.232-14.5408 9.1136 11.9808c0.8192 1.024 2.048 1.6384 3.2768 1.6384 0.8192 0 1.7408-0.3072 2.4576-0.8192 1.8432-1.3312 2.1504-3.8912 0.8192-5.7344l-7.9872-10.5472 70.8608-32.9728 40.7552 53.76-27.2384 12.6976c-2.048 0.9216-2.9696 3.3792-1.9456 5.4272 0.7168 1.536 2.1504 2.3552 3.6864 2.3552 0.6144 0 1.1264-0.1024 1.7408-0.4096L437.248 566.272l5.0176 6.5536c0.8192 1.024 2.048 1.6384 3.2768 1.6384 0.8192 0 1.7408-0.3072 2.4576-0.8192 1.8432-1.3312 2.1504-3.8912 0.8192-5.7344l-3.8912-5.12 75.6736-35.2256 38.0928 50.2784c-34.2016 26.7264-78.4384 38.6048-122.2656 31.5392L324.608 591.36c-41.8816-6.7584-78.4384-29.4912-103.1168-64-14.1312-19.8656-23.3472-42.0864-27.2384-65.4336h16.4864z m353.8944 110.592l-36.7616-48.5376 73.4208-34.2016 16.0768 21.4016L583.68 552.96c-5.8368 7.168-12.1856 13.7216-19.0464 19.6608z m-73.8304-285.4912l-23.552 10.9568-11.3664-15.0528 20.8896 2.3552c4.7104 0.512 9.3184 1.1264 14.0288 1.7408z m-189.2352-21.0944c3.6864 0 7.3728 0.2048 11.1616 0.6144l47.4112 5.4272-16.9984 7.8848-6.9632-9.1136c-1.3312-1.8432-3.8912-2.1504-5.7344-0.8192-1.8432 1.3312-2.1504 3.8912-0.8192 5.7344l5.8368 7.68-75.6736 35.2256-22.016-28.8768c17.408-14.9504 39.8336-23.7568 63.7952-23.7568z m-69.7344 29.3888l20.3776 26.9312-46.3872 21.6064c3.9936-18.944 13.2096-35.5328 26.0096-48.5376z m-58.2656 166.6048c3.9936 27.5456 14.6432 53.9648 31.3344 77.312 27.8528 39.0144 69.2224 64.6144 116.4288 72.2944l111.5136 18.0224c9.4208 1.536 18.8416 2.2528 28.16 2.2528 53.248 0 104.448-23.9616 138.4448-66.048l83.968-103.8336h79.6672l36.6592 19.5584c9.4208 5.0176 20.48 4.096 28.7744-1.4336l35.5328 21.6064v198.656H159.8464V462.0288h13.7216z m-49.5616-187.4944c0-4.1984 3.4816-7.68 7.68-7.68s7.68 3.4816 7.68 7.68v425.984h-15.36v-425.984z m796.9792 502.784c0 29.4912-23.9616 53.4528-53.4528 53.4528H156.4672c-29.4912 0-53.4528-23.9616-53.4528-53.4528V720.896h817.9712v56.4224zM884.6336 700.416V514.1504l9.3184 5.632c0.2048 5.9392 2.4576 11.5712 6.0416 16.1792V700.416h-15.36z m57.2416-206.9504c-1.2288 3.2768-4.1984 4.608-6.4512 4.7104-3.7888 0.2048-7.0656 2.3552-8.704 5.7344-1.6384 3.3792-1.3312 7.3728 0.8192 10.4448 1.3312 1.8432 2.048 4.9152 0.3072 7.8848-1.7408 2.9696-5.4272 4.3008-8.6016 3.1744-4.096-1.4336-5.4272-5.5296-4.7104-8.6016 1.1264-4.3008-0.8192-8.9088-4.608-11.264l-68.9152-41.8816 6.8608-12.8 56.832 31.6416c0.2048 0.1024 0.512 0.3072 0.7168 0.4096l10.752 5.9392c4.4032 2.4576 9.9328 1.3312 13.0048-2.56 2.2528-2.8672 6.144-3.584 9.3184-1.8432 3.1744 1.9456 4.608 5.8368 3.3792 9.0112zM561.152 364.032c-4.7104 7.8848-3.4816 17.3056 2.7648 21.4016 1.8432 1.2288 4.096 1.8432 6.3488 1.8432 0.9216 0 1.9456-0.1024 2.8672-0.3072 4.3008-1.024 8.2944-3.9936 10.8544-8.2944 4.096-6.7584 2.4576-20.7872 2.048-23.552-0.2048-1.2288-0.8192-2.2528-1.8432-2.8672s-2.2528-0.8192-3.4816-0.4096c-2.4576 0.8192-15.4624 5.3248-19.5584 12.1856z m7.0656 4.3008c1.3312-2.2528 5.9392-4.9152 10.24-6.7584 0.2048 5.0176 0 10.6496-1.4336 13.0048-1.4336 2.3552-3.584 4.096-5.632 4.608-1.1264 0.2048-2.1504 0.1024-2.9696-0.4096-2.1504-1.536-2.8672-6.144-0.2048-10.4448z m-62.464 12.288c-4.5056-1.7408-9.3184-1.7408-13.2096 0-3.1744 1.4336-5.5296 3.9936-6.656 7.0656-2.56 7.168 2.048 15.5648 10.3424 18.8416 1.7408 0.7168 3.7888 0.9216 5.8368 0.9216 6.9632 0 15.0528-2.8672 16.896-3.584 1.1264-0.4096 1.9456-1.2288 2.3552-2.3552 0.4096-1.1264 0.3072-2.3552-0.2048-3.3792-1.3312-2.3552-8.0896-14.6432-15.36-17.5104z m-6.656 18.3296c-4.096-1.6384-6.656-5.4272-5.632-8.3968 0.512-1.3312 1.536-2.048 2.3552-2.4576 0.9216-0.4096 1.9456-0.6144 3.072-0.6144 1.2288 0 2.56 0.2048 3.7888 0.7168 2.4576 0.9216 5.9392 5.3248 8.6016 9.5232-4.5056 1.3312-9.728 2.2528-12.1856 1.2288zM390.144 320.9216c1.7408 0.7168 3.7888 0.9216 5.8368 0.9216 6.9632 0 15.0528-2.8672 16.896-3.584 1.1264-0.4096 1.9456-1.2288 2.3552-2.3552 0.4096-1.1264 0.3072-2.3552-0.2048-3.3792-1.3312-2.4576-8.0896-14.7456-15.36-17.6128-4.5056-1.7408-9.3184-1.7408-13.2096 0-3.1744 1.4336-5.5296 3.9936-6.656 7.0656-2.56 7.2704 2.048 15.7696 10.3424 18.944z m-2.6624-15.9744c0.512-1.3312 1.536-2.048 2.3552-2.4576 0.9216-0.4096 1.9456-0.6144 3.072-0.6144 1.2288 0 2.56 0.2048 3.7888 0.7168 2.4576 0.9216 5.9392 5.3248 8.6016 9.5232-4.608 1.2288-9.8304 2.1504-12.288 1.1264-3.9936-1.536-6.5536-5.4272-5.5296-8.2944z m118.6816 264.6016c1.7408 0.7168 3.7888 0.9216 5.8368 0.9216 6.9632 0 14.9504-2.8672 16.896-3.584 1.1264-0.4096 1.9456-1.2288 2.3552-2.3552 0.4096-1.1264 0.3072-2.3552-0.2048-3.3792-1.3312-2.4576-8.0896-14.7456-15.36-17.6128-4.5056-1.7408-9.3184-1.7408-13.2096 0-3.1744 1.4336-5.5296 3.9936-6.656 7.0656-2.56 7.168 2.1504 15.6672 10.3424 18.944z m-2.6624-16.0768c0.512-1.3312 1.536-2.048 2.3552-2.4576 0.9216-0.4096 1.9456-0.6144 3.072-0.6144 1.2288 0 2.56 0.2048 3.7888 0.7168 2.4576 0.9216 5.9392 5.3248 8.6016 9.5232-4.608 1.2288-9.8304 2.1504-12.288 1.2288-3.9936-1.6384-6.5536-5.4272-5.5296-8.3968zM399.5648 431.4112c-2.9696-1.1264-6.2464-0.9216-9.3184 0.512-3.9936 1.8432-7.2704 5.7344-8.9088 10.5472-2.56 7.5776 1.9456 20.8896 2.8672 23.4496 0.4096 1.1264 1.3312 2.048 2.4576 2.4576 0.4096 0.2048 0.9216 0.2048 1.3312 0.2048 0.7168 0 1.4336-0.2048 2.048-0.6144 2.3552-1.4336 14.0288-8.704 16.5888-16.2816 3.072-8.704 0-17.6128-7.0656-20.2752z m-0.6144 17.7152c-0.8192 2.56-4.8128 6.144-8.704 8.9088-1.2288-4.8128-2.1504-10.3424-1.2288-12.9024 0.9216-2.6624 2.6624-4.9152 4.7104-5.8368 0.6144-0.3072 1.2288-0.4096 1.8432-0.4096 0.4096 0 0.7168 0.1024 1.1264 0.2048 2.4576 0.9216 3.8912 5.2224 2.2528 10.0352z" p-id="21420"></path></svg>